<svg width="66" height="66" viewBox="0 0 66 66" fill="none" xmlns="http://www.w3.org/2000/svg">
<g clip-path="url(#clip0)">
<path d="M31.9007 14.2998V53.7889C31.8717 56.2489 33.8407 58.2667 36.3006 58.299H58.3002C60.7596 58.2667 62.7286 56.2489 62.7001 53.7889V19.9404L64.9001 14.2998H31.9007Z" fill="#CFDFE8"/>
<path d="M31.9004 27.5H62.6998V53.8995C62.6998 56.3293 60.7297 58.2994 58.2999 58.2994H36.3003C33.8705 58.2994 31.9004 56.3293 31.9004 53.8995V27.5Z" fill="#5BA6F8"/>
<path d="M51.6992 33H62.699V35.2H51.6992V33Z" fill="#E97424"/>
<path d="M51.6992 46.1992H62.699V48.3992H51.6992V46.1992Z" fill="#E97424"/>
<path d="M56.0996 39.5996H62.6996V41.7996H56.0996V39.5996Z" fill="#E97424"/>
<path d="M39.5996 0H41.7996V2.2H39.5996V0Z" fill="#E97424"/>
<path d="M39.5996 4.40039H41.7996V6.60039H39.5996V4.40039Z" fill="#E97424"/>
<path d="M37.4004 2.2002H39.6004V4.40019H37.4004V2.2002Z" fill="#E97424"/>
<path d="M41.8008 2.2002H44.0008V4.40019H41.8008V2.2002Z" fill="#E97424"/>
<path d="M55 5.5H57.2V7.7H55V5.5Z" fill="#E97424"/>
<path d="M55 9.89941H57.2V12.0994H55V9.89941Z" fill="#E97424"/>
<path d="M52.8008 7.7002H55.0008V9.9002H52.8008V7.7002Z" fill="#E97424"/>
<path d="M57.1992 7.7002H59.3992V9.9002H57.1992V7.7002Z" fill="#E97424"/>
<path d="M40.6992 17.5996H35.1992V21.9996H37.3992V19.7996H40.6992V17.5996Z" fill="white"/>
<path d="M38.3888 58.1658L27.4991 29.6995V5.5H12.0994V29.6995L1.20974 58.1658C0.465853 61.665 3.51926 64.8989 7.56953 64.8989H32.0285C36.0788 64.8989 39.1322 61.665 38.3888 58.1658Z" fill="#CFDFE8"/>
<path d="M32.0285 64.8986H7.56953C3.51926 64.8986 0.465853 61.6647 1.20974 58.1655L12.2906 29.6992H27.3074L38.3888 58.1655C39.1322 61.6647 36.0788 64.8986 32.0285 64.8986V64.8986Z" fill="#F24A73"/>
<path d="M22 51.6992H24.2V53.8992H22V51.6992Z" fill="white"/>
<path d="M22 56.0986H24.2V58.2986H22V56.0986Z" fill="white"/>
<path d="M19.8008 53.8994H22.0008V56.0994H19.8008V53.8994Z" fill="white"/>
<path d="M24.1992 53.8994H26.3992V56.0994H24.1992V53.8994Z" fill="white"/>
<path d="M13.2012 46.1992H15.4012V48.3992H13.2012V46.1992Z" fill="white"/>
<path d="M13.2012 50.5986H15.4012V52.7986H13.2012V50.5986Z" fill="white"/>
<path d="M11 48.3994H13.2V50.5994H11V48.3994Z" fill="white"/>
<path d="M15.4004 48.3994H17.6004V50.5994H15.4004V48.3994Z" fill="white"/>
<path d="M8.80078 1.09961H30.8004V5.49952H8.80078V1.09961Z" fill="#F24A73"/>
<path d="M20.9004 8.7998H15.4004V13.1998H17.6004V10.9998H20.9004V8.7998Z" fill="white"/>
<path d="M22 51.6992H24.2V53.8992H22V51.6992Z" fill="black"/>
<path d="M22 56.0986H24.2V58.2986H22V56.0986Z" fill="black"/>
<path d="M19.8008 53.8994H22.0008V56.0994H19.8008V53.8994Z" fill="black"/>
<path d="M24.1992 53.8994H26.3992V56.0994H24.1992V53.8994Z" fill="black"/>
<path d="M13.2012 46.1992H15.4012V48.3992H13.2012V46.1992Z" fill="black"/>
<path d="M13.2012 50.5986H15.4012V52.7986H13.2012V50.5986Z" fill="black"/>
<path d="M11 48.3994H13.2V50.5994H11V48.3994Z" fill="black"/>
<path d="M15.4004 48.3994H17.6004V50.5994H15.4004V48.3994Z" fill="black"/>
<path d="M7.56923 65.9987H32.0282C34.3904 66.0412 36.644 65.011 38.1576 63.1972C39.0459 62.1263 39.553 60.79 39.5986 59.3989H58.2982C61.3339 59.3951 63.7944 56.9352 63.7981 53.899V20.1471L65.9234 14.6988C66.055 14.3604 66.0115 13.9785 65.8064 13.6788C65.6012 13.3791 65.2612 13.1997 64.8981 13.1997H31.8987C31.2913 13.1997 30.7988 13.6923 30.7988 14.2997V35.2487L28.5988 29.4959V6.59987H30.7988C31.4062 6.59987 31.8987 6.10735 31.8987 5.4999V1.09998C31.8987 0.49252 31.4062 0 30.7988 0H8.79919C8.19173 0 7.69921 0.49252 7.69921 1.09998V5.4999C7.69921 6.10735 8.19173 6.59987 8.79919 6.59987H10.9991V29.4959L0.184117 57.772C0.164244 57.8252 0.148131 57.88 0.136852 57.9358C-0.261139 59.7969 0.219565 61.7374 1.44039 63.1972C2.9534 65.011 5.20761 66.0412 7.56923 65.9987V65.9987ZM32.0282 63.7988H7.56923C5.87522 63.8305 4.25479 63.1043 3.15052 61.819C2.76649 61.3507 2.48612 60.8066 2.32875 60.2217C2.30942 60.1492 2.31157 60.074 2.29599 60.0015C2.2455 59.7888 2.21274 59.5724 2.19931 59.3538C2.202 59.213 2.21328 59.0728 2.23208 58.9337C2.2353 58.7807 2.24711 58.6276 2.2686 58.4761L13.0428 30.7994H26.5551L37.3159 58.452C37.3159 58.4729 37.3251 58.4933 37.3294 58.5143C37.3482 58.6534 37.3589 58.7936 37.3621 58.9337C37.3815 59.0728 37.3922 59.213 37.3954 59.3538C37.382 59.5697 37.3508 59.7845 37.302 59.995C37.2864 60.0686 37.2885 60.1433 37.2687 60.2153C37.1113 60.7996 36.8315 61.3442 36.4469 61.8121C35.3442 63.1 33.7238 63.8289 32.0282 63.7988V63.7988ZM63.289 15.3997L61.6728 19.5413C61.6234 19.6686 61.5982 19.8039 61.5982 19.9403V26.3995H32.9987V15.3997H63.289ZM32.9987 28.5995H61.5982V32.9994H51.6984C51.0909 32.9994 50.5984 33.4919 50.5984 34.0994C50.5984 34.7068 51.0909 35.1993 51.6984 35.1993H61.5982V39.5992H56.0983C55.4908 39.5992 54.9983 40.0918 54.9983 40.6992C54.9983 41.3067 55.4908 41.7992 56.0983 41.7992H61.5982V46.1991H51.6984C51.0909 46.1991 50.5984 46.6916 50.5984 47.2991C50.5984 47.9066 51.0909 48.3991 51.6984 48.3991H61.5982V53.7889C61.625 55.6402 60.1496 57.1651 58.2982 57.1989H39.1936L32.9987 41.0005V28.5995ZM9.89917 2.19996H29.6988V4.39992H9.89917V2.19996ZM26.3989 6.59987V28.5995H13.1991V6.59987H26.3989Z" fill="black"/>
<path d="M39.5996 0H41.7996V2.2H39.5996V0Z" fill="black"/>
<path d="M39.5996 4.40039H41.7996V6.60039H39.5996V4.40039Z" fill="black"/>
<path d="M37.4004 2.2002H39.6004V4.4002H37.4004V2.2002Z" fill="black"/>
<path d="M41.8008 2.2002H44.0008V4.4002H41.8008V2.2002Z" fill="black"/>
<path d="M55 5.5H57.2V7.7H55V5.5Z" fill="black"/>
<path d="M55 9.89941H57.2V12.0994H55V9.89941Z" fill="black"/>
<path d="M52.7988 7.7002H54.9988V9.9002H52.7988V7.7002Z" fill="black"/>
<path d="M57.1992 7.7002H59.3992V9.9002H57.1992V7.7002Z" fill="black"/>
<path d="M37.3992 19.7996H40.6992V17.5996H35.1992V21.9996H37.3992V19.7996Z" fill="black"/>
<path d="M17.6004 10.9998H20.9004V8.7998H15.4004V13.1998H17.6004V10.9998Z" fill="black"/>
</g>
<defs>
<clipPath id="clip0">
<rect width="66" height="66" fill="white"/>
</clipPath>
</defs>
</svg>
