<svg width="66" height="66" viewBox="0 0 66 66" fill="none" xmlns="http://www.w3.org/2000/svg">
<g clip-path="url(#clip0)">
<path d="M39.832 8.37891V1.41797H30.5508V64.8394H39.832V57.8785C53.5011 57.8785 64.582 46.7975 64.582 33.1284C64.582 19.4598 53.5011 8.37891 39.832 8.37891V8.37891ZM39.8421 48.6299L39.832 48.645V17.6828L39.8421 17.6929C48.3852 17.6929 55.3109 24.6186 55.3109 33.1617C55.3109 41.7047 48.3852 48.6299 39.8421 48.6299Z" fill="#F24A73"/>
<path d="M10.3301 13.7488V9.22495C10.3301 7.90164 11.4026 6.8291 12.7259 6.8291C14.0487 6.8291 15.1213 7.90164 15.1213 9.22495V13.7488H10.3301Z" fill="#5BA6F8"/>
<path d="M17.5174 18.2599C17.5174 20.906 15.3723 23.0506 12.7267 23.0506C10.0806 23.0506 7.93555 20.906 7.93555 18.2599C7.93555 15.6138 10.0806 13.4688 12.7267 13.4688C15.3723 13.4688 17.5174 15.6138 17.5174 18.2599Z" fill="#CFF1FB"/>
<path d="M8.08564 19.833L1.33518 45.1883C0.884005 46.8822 1.3387 48.6889 2.53763 49.9674L4.85291 52.4377L12.7273 23.0521L8.08564 19.833Z" fill="#5BA6F8"/>
<path d="M17.3677 19.833L24.1181 45.1883C24.5693 46.8822 24.1146 48.6889 22.9157 49.9674L20.6004 52.4377L12.7266 23.0521L17.3677 19.833Z" fill="#5BA6F8"/>
<path d="M54.9085 36.912C54.2343 36.6839 53.5027 37.0445 53.2735 37.7187C51.4598 43.0668 46.6696 46.784 41.1211 47.2835V19.0399C46.5211 19.5329 51.2594 23.1155 53.1542 28.2653C53.3999 28.9334 54.1411 29.2759 54.8088 29.0301C55.477 28.7844 55.8194 28.0432 55.5737 27.375C53.1774 20.8617 46.9304 16.4693 39.9977 16.4044C39.7782 16.3757 39.55 16.4039 39.3371 16.4925C38.8562 16.6924 38.543 17.1622 38.543 17.6823V48.6445C38.543 49.2125 38.9146 49.7136 39.4579 49.8782C39.5818 49.916 39.7077 49.9341 39.832 49.9341C39.9005 49.9341 39.9685 49.9286 40.0355 49.9175C47.1434 49.8364 53.4286 45.2879 55.7152 38.547C55.9438 37.8728 55.5828 37.1407 54.9085 36.912V36.912Z" fill="black"/>
<path d="M41.1211 7.12107V1.41797C41.1211 0.705964 40.544 0.128906 39.832 0.128906H30.5508C29.8393 0.128906 29.2617 0.705964 29.2617 1.41797V64.8394C29.2617 65.5514 29.8393 66.1285 30.5508 66.1285H39.832C40.544 66.1285 41.1211 65.5514 41.1211 64.8394V59.1363C54.8828 58.4621 65.8711 47.0544 65.8711 33.1284C65.8711 19.203 54.8828 7.79531 41.1211 7.12107V7.12107ZM39.832 56.5894C39.12 56.5894 38.543 57.1665 38.543 57.8785V63.5504H31.8398V59.1675H33.9668C34.6788 59.1675 35.2559 58.5905 35.2559 57.8785C35.2559 57.1665 34.6788 56.5894 33.9668 56.5894H31.8398V52.98H32.145C32.857 52.98 33.4341 52.403 33.4341 51.691C33.4341 50.9795 32.857 50.4019 32.145 50.4019H31.8398V46.7925H33.9668C34.6788 46.7925 35.2559 46.2155 35.2559 45.5035C35.2559 44.792 34.6788 44.2144 33.9668 44.2144H31.8398V40.605H32.145C32.857 40.605 33.4341 40.028 33.4341 39.316C33.4341 38.6044 32.857 38.0269 32.145 38.0269H31.8398V34.4175H33.9668C34.6788 34.4175 35.2559 33.8405 35.2559 33.1284C35.2559 32.4169 34.6788 31.8394 33.9668 31.8394H31.8398V28.2305H32.145C32.857 28.2305 33.4341 27.6529 33.4341 26.9414C33.4341 26.2294 32.857 25.6524 32.145 25.6524H31.8398V22.043H33.9668C34.6788 22.043 35.2559 21.4654 35.2559 20.7539C35.2559 20.0419 34.6788 19.4649 33.9668 19.4649H31.8398V15.8555H32.145C32.857 15.8555 33.4341 15.2779 33.4341 14.5664C33.4341 13.8544 32.857 13.2774 32.145 13.2774H31.8398V9.66798H33.9658C34.6778 9.66798 35.2549 9.09042 35.2549 8.37892C35.2549 7.66691 34.6778 7.08985 33.9658 7.08985H31.8398V2.70703H38.543V8.37892C38.543 9.09042 39.12 9.66798 39.832 9.66798C52.7685 9.66798 63.293 20.1925 63.293 33.1284C63.293 46.0649 52.7685 56.5894 39.832 56.5894Z" fill="black"/>
<path d="M25.3637 44.856L18.648 19.6326C18.7502 19.191 18.8061 18.7323 18.8061 18.2605C18.8061 16.2921 17.8655 14.5403 16.4108 13.4285V9.22495C16.4108 7.19316 14.7581 5.54004 12.7264 5.54004C10.6946 5.54004 9.04196 7.19316 9.04196 9.22495V13.4285C7.58672 14.5403 6.64611 16.2921 6.64611 18.2605C6.64611 18.7323 6.702 19.191 6.80422 19.6326L0.0885027 44.856C-0.480498 46.9945 0.0829636 49.2348 1.5961 50.8486L3.42194 52.7963L1.49942 59.9708C1.31513 60.6586 1.723 61.3656 2.41083 61.5499C2.52262 61.5796 2.63491 61.5942 2.74518 61.5942C3.31418 61.5942 3.83535 61.214 3.98943 60.638L6.09776 52.7712L12.7264 28.0322L19.355 52.7712L21.4633 60.638C21.6174 61.214 22.138 61.5942 22.7075 61.5942C22.8178 61.5942 22.9301 61.5796 23.0419 61.5499C23.7297 61.3656 24.1376 60.6586 23.9533 59.9708L22.0308 52.7963L23.8566 50.8486C25.3698 49.2343 25.9332 46.994 25.3637 44.856V44.856ZM12.7264 21.7621C10.7953 21.7621 9.22424 20.1911 9.22424 18.2605C9.22424 16.3294 10.7953 14.7584 12.7264 14.7584C14.6569 14.7584 16.228 16.3294 16.228 18.2605C16.228 20.1911 14.6569 21.7621 12.7264 21.7621ZM11.6196 9.22495C11.6196 8.61466 12.1161 8.11817 12.7264 8.11817C13.3361 8.11817 13.8326 8.61466 13.8326 9.22495V12.283C13.4736 12.217 13.104 12.1802 12.7264 12.1802C12.3482 12.1802 11.9786 12.2165 11.6196 12.283V9.22495ZM2.58002 45.5192L8.63963 22.7586C9.33451 23.3901 10.1759 23.8619 11.1055 24.1192L4.20696 49.8642L3.47683 49.0857C2.5765 48.125 2.24114 46.7916 2.58002 45.5192V45.5192ZM21.9754 49.0857L21.2453 49.8642L14.3468 24.1192C15.2763 23.8619 16.1182 23.3901 16.8126 22.7586L22.8727 45.5192C23.2111 46.7916 22.8757 48.125 21.9754 49.0857Z" fill="black"/>
<path d="M12.7266 16.9707C12.3877 16.9707 12.0548 17.1087 11.8152 17.3484C11.5755 17.5885 11.4375 17.9209 11.4375 18.2598C11.4375 18.5992 11.5755 18.9315 11.8152 19.1712C12.0548 19.4109 12.3877 19.5488 12.7266 19.5488C13.0654 19.5488 13.3983 19.4109 13.638 19.1712C13.8777 18.9315 14.0156 18.5992 14.0156 18.2598C14.0156 17.9209 13.8777 17.5885 13.638 17.3484C13.3983 17.1087 13.067 16.9707 12.7266 16.9707Z" fill="black"/>
<path d="M56.2234 32.0652C55.9837 31.8255 55.6514 31.6875 55.3125 31.6875C54.9721 31.6875 54.6408 31.8255 54.4011 32.0652C54.1609 32.3048 54.0234 32.6377 54.0234 32.9766C54.0234 33.3169 54.1609 33.6483 54.4011 33.889C54.6408 34.1286 54.9731 34.2656 55.3125 34.2656C55.6514 34.2656 55.9837 34.1286 56.2234 33.889C56.4636 33.6483 56.6016 33.3154 56.6016 32.9766C56.6016 32.6377 56.4636 32.3048 56.2234 32.0652V32.0652Z" fill="black"/>
</g>
<defs>
<clipPath id="clip0">
<rect width="66" height="66" fill="white"/>
</clipPath>
</defs>
</svg>
