<svg width="66" height="66" viewBox="0 0 66 66" fill="none" xmlns="http://www.w3.org/2000/svg">
<g clip-path="url(#clip0)">
<path d="M56.2029 28.6172V41.5077C56.2029 54.3221 45.8143 64.7107 32.9999 64.7107C20.1854 64.7107 9.79688 54.3223 9.79688 41.5078V28.6173H22.6874V41.5078C22.6874 47.2027 27.3047 51.8203 32.9999 51.8203C38.695 51.8203 43.3124 47.2029 43.3124 41.5078V28.6173L56.2029 28.6172Z" fill="#F24A73"/>
<path d="M56.203 16.7578H43.3125V28.6171H56.203V16.7578Z" fill="white"/>
<path d="M22.6874 16.7578H9.79688V28.6171H22.6874V16.7578Z" fill="white"/>
<path d="M16.2422 41.5078C16.2422 40.7963 15.6647 40.2188 14.9531 40.2188C14.2416 40.2188 13.6641 40.7963 13.6641 41.5078C13.6641 42.2194 14.2416 42.7969 14.9531 42.7969C15.6647 42.7969 16.2422 42.2194 16.2422 41.5078Z" fill="black"/>
<path d="M8.50781 16.7588V41.5087C8.50781 55.0135 19.4949 66.0006 32.9999 66.0006C46.5049 66.0006 57.4919 55.0134 57.4919 41.5085V16.7588C57.4919 16.0468 56.9147 15.4697 56.2029 15.4697H43.3124C42.6006 15.4697 42.0233 16.0468 42.0233 16.7588V41.5087C42.0233 46.4842 37.9754 50.5321 32.9999 50.5321C28.0338 50.5321 23.9764 46.5144 23.9764 41.5087V16.7588C23.9764 16.0468 23.3992 15.4697 22.6874 15.4697H9.79688C9.08505 15.4697 8.50781 16.0468 8.50781 16.7588ZM54.9138 27.329H44.6013V18.0477H54.9138V27.329ZM32.9999 53.1101C39.397 53.1101 44.6013 47.9056 44.6013 41.5087V29.9072H54.9138V41.5087C54.9138 53.592 45.0832 63.4226 32.9999 63.4226C20.9166 63.4226 11.0859 53.592 11.0859 41.5087V29.9072H21.3984V41.5087C21.3984 47.8937 26.5642 53.1101 32.9999 53.1101ZM21.3984 18.0479V27.3291H11.0859V18.0479H21.3984Z" fill="black"/>
<path d="M16.9242 46.2467C16.7225 45.5639 16.0056 45.1734 15.3227 45.3756C14.64 45.5772 14.2499 46.2942 14.4515 46.977C15.609 50.8957 18.0501 54.424 21.3251 56.9118C21.8918 57.3423 22.7006 57.2321 23.1313 56.665C23.562 56.0982 23.4515 55.2895 22.8846 54.8588C20.0439 52.701 17.9272 49.6424 16.9242 46.2467Z" fill="black"/>
<path d="M15.5295 0.136444C14.8929 -0.182084 14.1185 0.0761154 13.8001 0.712912L11.222 5.86916C11.0222 6.26877 11.0436 6.74328 11.2785 7.12329C11.5133 7.50331 11.9283 7.73469 12.3751 7.73469H15.4455L13.8001 11.0254C13.4817 11.6622 13.7398 12.4365 14.3767 12.7549C15.0156 13.0744 15.7889 12.8131 16.1061 12.1785L18.6843 7.02223C18.8841 6.62262 18.8627 6.14811 18.6278 5.7681C18.3929 5.38808 17.978 5.1567 17.5312 5.1567H14.4608L16.1061 1.86598C16.4244 1.22918 16.1663 0.454842 15.5295 0.136444Z" fill="black"/>
<path d="M51.6233 0.136444C50.9866 -0.182084 50.2123 0.0761154 49.8939 0.712912L47.3158 5.86916C47.116 6.26877 47.1374 6.74328 47.3722 7.12329C47.6071 7.50331 48.022 7.73469 48.4688 7.73469H51.5392L49.8939 11.0254C49.5755 11.6622 49.8336 12.4365 50.4705 12.7549C51.1093 13.0744 51.8827 12.8131 52.1999 12.1785L54.778 7.02223C54.9778 6.62262 54.9564 6.14811 54.7216 5.7681C54.4867 5.38808 54.0717 5.1567 53.625 5.1567H50.5545L52.1999 1.86598C52.5182 1.22918 52.2601 0.454842 51.6233 0.136444Z" fill="black"/>
</g>
<defs>
<clipPath id="clip0">
<rect width="66" height="66" fill="white"/>
</clipPath>
</defs>
</svg>
