<svg width="178" height="360" fill="none" xmlns="http://www.w3.org/2000/svg"><path d="M43.57 199.675c-11.623 37.253-16.327 77.371-18.382 116.017-.057 1.164.902 2.499 2.067 2.716 8.323 1.575 16.544 2.134 25.005 1.609 3.813-.239 9.009-.627 10.482-4.942 2.603-7.635 2.546-16.663 3.562-24.641 1.29-10.169 2.569-20.327 3.86-30.497 2.408-19.049 7.055-39.159 6.895-58.368 0-.662-.08-1.278-.148-1.906h-33.34v.012z" fill="#B17958"/><path opacity=".5" d="M43.57 199.675c-11.623 37.253-16.327 77.371-18.382 116.017-.057 1.164.902 2.499 2.067 2.716 8.323 1.575 16.544 2.134 25.005 1.609 3.813-.239 9.009-.627 10.482-4.942 2.603-7.635 2.546-16.663 3.562-24.641 1.29-10.169 2.569-20.327 3.86-30.497 2.408-19.049 7.055-39.159 6.895-58.368 0-.662-.08-1.278-.148-1.906h-33.34v.012z" fill="#B17958"/><path d="M149.574 282.936c4.567 9.062 9.477 19.083 16.419 26.696a.427.427 0 00.125.285l.343.343c1.027 2.625 2.066 5.273 3.106 7.932.102.262.251.468.433.65.56-.114 1.119-.216 1.679-.353.297-.491.582-.971.833-1.427.297-.548.583-1.084.857-1.621-2.261-22.678-18.155-43.998-27.632-64.04-6.097-12.897-11.144-26.228-15.437-39.822a122.291 122.291 0 01-1.553-5.375c-.491-2.18-.993-4.349-1.507-6.529h-7.261c.605 2.157 1.221 4.28 1.815 6.358 2.9 15.716 8.643 31.421 13.975 45.63 3.974 10.695 8.667 21.081 13.805 31.273z" fill="#B17958"/><path d="M132.858 317.118c9.854 4.954 20.027 2.215 30.349 2.9a89.733 89.733 0 008.152-1.484 2.56 2.56 0 00-.297-1.815 580.15 580.15 0 01-34.139-69.211c-6.451-15.636-11.247-31.797-16.373-47.845H93.443c.069.913.149 1.826.263 2.774.582 4.656 1.302 9.302 1.895 13.958.035.274.08.56.126.845 4.944 24.288 14.044 48.301 22.379 71.299 2.877 7.978 6.097 24.231 14.752 28.579z" fill="#B17958"/><path opacity=".5" d="M132.858 317.118c9.854 4.954 20.027 2.215 30.349 2.9a89.733 89.733 0 008.152-1.484 2.56 2.56 0 00-.297-1.815 580.15 580.15 0 01-34.139-69.211c-6.451-15.636-11.247-31.797-16.373-47.845H93.443c.069.913.149 1.826.263 2.774.582 4.656 1.302 9.302 1.895 13.958.035.274.08.56.126.845 4.944 24.288 14.044 48.301 22.379 71.299 2.877 7.978 6.097 24.231 14.752 28.579z" fill="#B17958"/><path d="M85.476 196.217c-4.51 12.281-5.778 26.274-7.696 39.171-1.838 12.383-3.22 24.812-4.339 37.276-2.283 25.417-3.676 51.485-2.443 77.063-.343-.365-.697-.731-1.005-1.13-1.096-1.438-3.756-.685-3.14 1.324 1.108 3.572 2.375 5.946 5.4 8.297.72-.205 1.451-.41 2.159-.662 1.073-1.061 2.158-2.157 3.334-3.104.034-26.239-.137-52.25 1.918-78.467 1.108-14.118 2.729-28.202 4.636-42.241 1.667-12.224 4.864-24.641 5.32-36.968.092-2.511-3.368-2.682-4.144-.559z" fill="#B17958"/><path opacity=".5" d="M85.476 196.217c-4.51 12.281-5.778 26.274-7.696 39.171-1.838 12.383-3.22 24.812-4.339 37.276-2.283 25.417-3.676 51.485-2.443 77.063-.343-.365-.697-.731-1.005-1.13-1.096-1.438-3.756-.685-3.14 1.324 1.108 3.572 2.375 5.946 5.4 8.297.72-.205 1.451-.41 2.159-.662 1.073-1.061 2.158-2.157 3.334-3.104.034-26.239-.137-52.25 1.918-78.467 1.108-14.118 2.729-28.202 4.636-42.241 1.667-12.224 4.864-24.641 5.32-36.968.092-2.511-3.368-2.682-4.144-.559z" fill="#B17958"/><path d="M55.4 197.963c-.673 3.264-1.336 6.494-2.01 9.644-3.596 16.767-6.405 33.727-8.677 50.778-3.334 25.03-6.622 52.08-5.823 78.057-.297 6.574-.308 13.125-.16 19.459.091.149.171.297.274.434.206.297.423.605.64.89h.022c4.328.936 8.678 2.374 13.062 2.625 3.083.172 6.223.217 9.329.023 1.781-.285 3.574-.525 5.343-.605 2.375-.388 4.716-.936 6.988-1.735.468-.456.936-.924 1.416-1.381-1.142-30.736-.263-61.826 1.599-92.494.947-15.556 2.386-31.078 4.144-46.543.72-6.358 1.747-12.761 2.672-19.163H55.4v.011z" fill="#B17958"/><path opacity=".1" d="M55.4 197.963c-.673 3.264-1.336 6.494-2.01 9.644-3.596 16.767-6.405 33.727-8.677 50.778-3.334 25.03-6.622 52.08-5.823 78.057-.297 6.574-.308 13.125-.16 19.459.091.149.171.297.274.434.206.297.423.605.64.89h.022c4.328.936 8.678 2.374 13.062 2.625 3.083.172 6.223.217 9.329.023 1.781-.285 3.574-.525 5.343-.605 2.375-.388 4.716-.936 6.988-1.735.468-.456.936-.924 1.416-1.381-1.142-30.736-.263-61.826 1.599-92.494.947-15.556 2.386-31.078 4.144-46.543.72-6.358 1.747-12.761 2.672-19.163H55.4v.011z" fill="#B17958"/><path d="M156.892 185.956c-.103-.924-.96-1.951-2.021-1.541-4.727 1.815-10.916 3.196-14.798 6.563-.457.4-.08 1.141.48 1.141.445 0 .902-.034 1.347-.079-.126.958.251 2.031 1.096 2.556 1.587.97 3.505.936 4.955 2.169 1.108.947 1.37 2.362 1.873 3.663a2.431 2.431 0 00-.719.697c-.994 1.438.091 3.184 1.507 3.709 9.271 3.401 6.748-14.803 6.28-18.878z" fill="#B17958"/><path d="M155.729 182.121c.308-2.294.674-4.588 1.13-6.871.217-1.107.411-2.237.617-3.367 1.073-7.316 1.941-14.655 2.969-21.982 2.968-21.092 5.8-42.195 8.757-63.287 2.398-17.143 5.367-34.389 7.49-51.612.149-3.88.366-7.76.708-11.641.286-3.196.16-6.711.423-10.112a12.115 12.115 0 00-1.382-.902c-2.934-1.575-5.515-3.584-8.301-5.353-1.644-1.05-3.311 1.164-2.192 2.557-2.432 7.316-3.448 15.225-4.853 22.86-1.998 5.24-3.174 10.9-4.087 16.584-1.393 5.114-2.603 10.272-2.775 15.408-.011.423.114.765.343 1.027-2.067 12.624-4.019 25.27-5.926 37.927-3.905 26.011-9.614 53.05-9.74 79.38 0 1.027.914 1.747 1.839 1.838 0 .251-.012.491-.012.742-2.432.958-4.829 2.031-6.908 3.492-1.438 1.005-1.176 3.949 1.017 3.687 4.453-.514 8.654-2.34 12.822-3.892 2.238-.833 5.172-1.461 7.25-2.888.286-1.21.56-2.408.811-3.595z" fill="#999"/><path d="M168.665 8.193a24.65 24.65 0 01-1.21-1.69c-20.37-4.108-41.949-5.273-61.839-6.049-16.477-.639-34.003-.764-51.233.697-8.449.057-17.092 1.54-24.24 3.412-.81.217-1.199.925-1.245 1.655-3.87 5.73-5.629 13.525-6.999 20.955-6.474 19.072-8.3 40.894-10.516 59.178-2.158 17.771-3.528 35.644-4.27 53.529-.662 15.99-1.587 32.791.845 48.701.388 1.187.822 2.363 1.347 3.493.023.034.035.057.057.091 10.265-.126 20.621-1.792 30.863-2.477 12.114-.799 24.286-.981 36.423-.924 12.16.057 24.298.65 36.423 1.541 7.616.547 15.346 1.769 23.053 2.579.834-.114 1.667-.274 2.501-.548 1.998-.662 3.037-2.499 4.042-4.451 3.014-12.543 3.357-26.16 4.784-38.908 1.758-15.774 3.882-31.501 6.268-47.195 2.25-14.826 4.864-29.595 7.662-44.33 2.592-13.627 6.565-27.38 7.593-41.282-.206-2.67-.332-5.318-.309-7.977z" fill="#E6E6E6"/><path d="M154.632 207.733c.012-.046.012-.091.023-.148-.274-3.904-.651-8.127-2.284-11.026-1.792-3.184-5.263-4.325-8.677-5.181a3.207 3.207 0 00-1.153-.56c-23.727-6.151-48.264-9.267-72.71-10.546-22.014-1.141-47.944-2.442-67.685 9.051-2.41 1.404-.331 4.531 1.69 3.983v.023c21.454-7.841 43.433-7.921 65.995-6.871 23.43 1.096 46.437 4.942 69.33 9.816.011.011.023.023.034.023 1.576.947 2.877 1.552 4.133 2.967 1.211 1.358 1.131 3.322 2.238 4.714.149 1.598.377 3.196.514 4.737.171 1.906.046 3.914 1.028 5.409a16.032 16.032 0 00-1.519 2.009c-.548.833-.171 1.609.491 2.032a2 2 0 00.206.764c-.023.069-.046.137-.057.206-.137.65.502 1.164 1.107.845 2.626-1.37 6.143-5.273 6.942-8.241.331-1.221.468-2.625.354-4.006z" fill="#B17958"/><path opacity=".5" d="M154.632 207.733c.012-.046.012-.091.023-.148-.274-3.904-.651-8.127-2.284-11.026-1.792-3.184-5.263-4.325-8.677-5.181a3.207 3.207 0 00-1.153-.56c-23.727-6.151-48.264-9.267-72.71-10.546-22.014-1.141-47.944-2.442-67.685 9.051-2.41 1.404-.331 4.531 1.69 3.983v.023c21.454-7.841 43.433-7.921 65.995-6.871 23.43 1.096 46.437 4.942 69.33 9.816.011.011.023.023.034.023 1.576.947 2.877 1.552 4.133 2.967 1.211 1.358 1.131 3.322 2.238 4.714.149 1.598.377 3.196.514 4.737.171 1.906.046 3.914 1.028 5.409a16.032 16.032 0 00-1.519 2.009c-.548.833-.171 1.609.491 2.032a2 2 0 00.206.764c-.023.069-.046.137-.057.206-.137.65.502 1.164 1.107.845 2.626-1.37 6.143-5.273 6.942-8.241.331-1.221.468-2.625.354-4.006z" fill="#B17958"/><path d="M148.946 213.36c-.023-2.1-.445-4.246-.777-6.254-.274-1.678-.65-3.504-1.244-5.228-.32-1.632-.811-3.173-1.736-4.44a.852.852 0 00-.536-.331c-1.587-1.403-3.928-2.271-5.915-2.67-.045-.012-.08-.023-.125-.023-8.507-3.515-18.486-4.68-27.266-5.889-12.457-1.724-25.051-2.317-37.6-3.059-12.696-.754-25.37-1.13-38.078-.571-11.327.502-24.743 1.393-34.962 6.586-.685.353-.81 1.13-.56 1.746-.16.354-.182.787-.102 1.153a98.793 98.793 0 002.17 8.503c.753 2.488 1.267 5.41 3.276 7.179-.068.867.411 1.7 1.564 1.643 11.167-.605 22.311-3.104 33.478-4.166 11.258-1.084 22.596-1.175 33.9-.719 24.96 1.016 47.692 7.944 71.773 13.491 1.552.354 2.774-1.05 2.728-2.351.412-1.473.297-3.036.012-4.6z" fill="#B17958"/><path d="M108.002 54.884l-4.784-.559 1.849-15.819c.811-6.905-4.156-13.182-11.064-13.993-6.907-.81-13.187 4.155-13.998 11.06l-1.85 15.819-4.784-.56 1.85-15.818c1.119-9.542 9.796-16.401 19.342-15.283 9.545 1.119 16.407 9.793 15.288 19.334l-1.849 15.82z" fill="#73726F"/><path d="M112.523 79.697a1.88 1.88 0 01-2.078 1.644l-45.58-5.342a1.88 1.88 0 01-1.644-2.077l3.47-29.606a1.881 1.881 0 012.079-1.644l45.58 5.342a1.88 1.88 0 011.644 2.077l-3.471 29.606z" fill="#FFCB02"/><path d="M136.523 117.271l-110.56-14.735 2.58-22.188 110.549 14.735-2.569 22.188zm-3.402 29.286L22.572 131.822l2.57-22.187L135.7 124.369l-2.58 22.188z" fill="#fff"/><path d="M38.569 91.601l-1.553 1.86v.035l2.477-.023v1.119l-2.477-.594v.034l1.575 2.157-1.027.468-.982-2.408h-.035l-1.061 2.18-.937-.707 1.553-1.804v-.034l-2.42.011v-1.118l2.409.605v-.034l-1.542-2.192.994-.445 1.016 2.397h.034l1.005-2.169.97.662zm6.806.833l-1.553 1.86v.035l2.478-.023v1.119l-2.478-.594v.035l1.576 2.157-1.028.468-.981-2.409h-.035l-1.062 2.18-.936-.707 1.553-1.804v-.034l-2.42.012V93.61l2.409.605v-.034l-1.542-2.192.993-.445 1.017 2.397h.034l1.005-2.168.97.662zm6.793.834l-1.553 1.86v.035l2.478-.023v1.118l-2.478-.593v.034l1.576 2.157-1.04.468-.981-2.408h-.035l-1.061 2.18-.937-.708 1.553-1.803v-.034l-2.42.011v-1.118l2.409.605v-.035l-1.542-2.191 1.005-.445 1.016 2.397h.035l.993-2.169.982.662zm6.805.832l-1.553 1.861v.034l2.478-.023v1.119l-2.478-.593v.034l1.576 2.157-1.028.468-.982-2.408h-.034l-1.062 2.18-.936-.708 1.553-1.803v-.035l-2.421.012v-1.119l2.41.605v-.034l-1.542-2.191 1.005-.446 1.016 2.397h.034l.993-2.168.97.662zm6.793.834l-1.553 1.86v.035l2.478-.023v1.118l-2.478-.593v.034l1.576 2.157-1.028.468-.982-2.408h-.034l-1.062 2.18-.936-.708 1.553-1.803v-.034l-2.421.011V96.11l2.41.604v-.034l-1.542-2.191.993-.445 1.016 2.397h.035l1.004-2.169.97.662zm6.806.833l-1.552 1.86v.035l2.477-.023v1.119l-2.477-.594v.034l1.575 2.158-1.027.467-.982-2.408h-.035l-1.061 2.18-.937-.707 1.553-1.804v-.034l-2.42.011v-1.118l2.409.605v-.034l-1.542-2.192.994-.445 1.016 2.397h.034l.994-2.169.981.662zm6.793.833l-1.552 1.861v.034l2.477-.023v1.119l-2.478-.593v.034l1.576 2.157-1.027.468-.982-2.408h-.035l-1.061 2.18-.937-.708 1.553-1.803v-.035l-2.42.012v-1.119l2.409.605v-.034l-1.542-2.191 1.005-.446 1.016 2.397h.034l.994-2.168.97.662zM35.84 119.963l-1.553 1.861v.034l2.478-.023v1.119l-2.478-.594v.035l1.576 2.157-1.028.468-.982-2.409h-.034l-1.062 2.18-.936-.707 1.553-1.804v-.034l-2.42.012v-1.119l2.408.605v-.034l-1.541-2.192.993-.445 1.016 2.397h.035l1.004-2.168.971.661zm6.805.834l-1.553 1.86v.035l2.477-.023v1.118l-2.477-.593v.034l1.575 2.157-1.027.468-.982-2.408h-.034l-1.062 2.18-.936-.708 1.552-1.803v-.034l-2.42.011v-1.118l2.409.604v-.034l-1.541-2.191.993-.445 1.016 2.397h.034l1.005-2.169.97.662zm6.795.833l-1.553 1.861v.034l2.477-.023v1.119l-2.477-.594v.034l1.575 2.157-1.039.468-.982-2.408h-.034l-1.062 2.18-.936-.708 1.553-1.803v-.034l-2.421.011v-1.118l2.41.605v-.035l-1.542-2.191 1.005-.445 1.016 2.397h.034l.993-2.169.982.662zm6.793.833l-1.553 1.86v.034l2.477-.022v1.118l-2.477-.593v.034l1.575 2.157-1.027.468-.982-2.408h-.034l-1.062 2.18-.936-.708 1.552-1.803v-.034l-2.42.011v-1.119l2.409.605v-.034l-1.541-2.191 1.004-.445 1.016 2.396h.035l.993-2.168.97.662zm6.804.833l-1.553 1.861v.034l2.478-.023v1.119l-2.478-.594v.034l1.576 2.157-1.028.468-.981-2.408h-.035l-1.062 2.18-.936-.708 1.553-1.803v-.034l-2.42.011v-1.118l2.409.605v-.035l-1.542-2.191.993-.445 1.017 2.397h.034l1.005-2.169.97.662zm6.805.834l-1.553 1.86v.034l2.478-.023v1.119l-2.478-.594v.035l1.576 2.157-1.028.468-.982-2.408h-.034l-1.062 2.18-.936-.708 1.553-1.803v-.035l-2.42.012v-1.119l2.408.605v-.034l-1.541-2.191.993-.446 1.016 2.397h.035l.993-2.168.982.662zm6.793.833l-1.553 1.86v.035l2.478-.023v1.118l-2.478-.593v.034l1.576 2.157-1.028.468-.982-2.408h-.034l-1.062 2.18-.936-.708 1.553-1.803v-.034l-2.421.011v-1.118l2.41.604v-.034l-1.542-2.191 1.005-.445 1.016 2.397h.034l.993-2.169.97.662z" fill="#000"/></svg>